<mxfile host="65bd71144e">
    <diagram id="rsL4Odo7kaQGDL-4A8Vv" name="Page-1">
        <mxGraphModel dx="250" dy="458" grid="1" gridSize="10" guides="1" tooltips="1" connect="1" arrows="1" fold="1" page="1" pageScale="1" pageWidth="850" pageHeight="1100" background="#ffffff" math="0" shadow="0">
            <root>
                <mxCell id="0"/>
                <mxCell id="1" parent="0"/>
                <mxCell id="2" value="Ask integer value in celsius to user;&lt;br&gt;&amp;nbsp;&lt;span style=&quot;color: rgb(212, 212, 212);&quot;&gt;    &lt;/span&gt;&lt;span style=&quot;color: rgb(156, 220, 254);&quot;&gt;celsius&lt;/span&gt;&lt;span style=&quot;color: rgb(212, 212, 212);&quot;&gt;= &lt;/span&gt;&lt;span style=&quot;color: rgb(78, 201, 176);&quot;&gt;int&lt;/span&gt;&lt;span style=&quot;color: rgb(212, 212, 212);&quot;&gt;(&lt;/span&gt;&lt;span style=&quot;color: rgb(220, 220, 170);&quot;&gt;input&lt;/span&gt;&lt;span style=&quot;color: rgb(212, 212, 212);&quot;&gt;(&lt;/span&gt;&lt;span style=&quot;color: rgb(206, 145, 120);&quot;&gt;&quot;Enter the temparature in Celsius: &quot;&lt;/span&gt;&lt;span style=&quot;color: rgb(212, 212, 212);&quot;&gt;))&lt;/span&gt;&lt;div style=&quot;color: rgb(212, 212, 212); background-color: rgb(30, 30, 30); font-family: Menlo, Monaco, &amp;quot;Courier New&amp;quot;, monospace; line-height: 18px;&quot;&gt;&lt;div&gt;&lt;/div&gt;&lt;/div&gt;" style="rounded=0;whiteSpace=wrap;html=1;" parent="1" vertex="1">
                    <mxGeometry x="630" y="150" width="455" height="60" as="geometry"/>
                </mxCell>
                <mxCell id="3" value="Convert value inputed by user to Fahrenheit;&lt;br&gt;&lt;span style=&quot;color: rgb(156, 220, 254);&quot;&gt;fahrenheit&lt;/span&gt;&lt;span style=&quot;color: rgb(212, 212, 212);&quot;&gt;= (&lt;/span&gt;&lt;span style=&quot;color: rgb(78, 201, 176);&quot;&gt;float&lt;/span&gt;&lt;span style=&quot;color: rgb(212, 212, 212);&quot;&gt;(&lt;/span&gt;&lt;span style=&quot;color: rgb(156, 220, 254);&quot;&gt;celsius&lt;/span&gt;&lt;span style=&quot;color: rgb(212, 212, 212);&quot;&gt;) * &lt;/span&gt;&lt;span style=&quot;color: rgb(181, 206, 168);&quot;&gt;1.8&lt;/span&gt;&lt;span style=&quot;color: rgb(212, 212, 212);&quot;&gt;) +&lt;/span&gt;&lt;span style=&quot;color: rgb(181, 206, 168);&quot;&gt;32&lt;/span&gt;&amp;nbsp;&lt;br&gt;&lt;br&gt;&lt;div style=&quot;color: rgb(212, 212, 212); background-color: rgb(30, 30, 30); font-family: Menlo, Monaco, &amp;quot;Courier New&amp;quot;, monospace; line-height: 18px;&quot;&gt;&lt;div&gt;&lt;/div&gt;&lt;/div&gt;" style="rounded=0;whiteSpace=wrap;html=1;" parent="1" vertex="1">
                    <mxGeometry x="632.5" y="300" width="450" height="60" as="geometry"/>
                </mxCell>
                <mxCell id="4" value="Print the value in celsius inputed by the user;&lt;br&gt;&lt;div style=&quot;color: rgb(212, 212, 212); line-height: 18px;&quot;&gt;&lt;div style=&quot;&quot;&gt;    &lt;span style=&quot;color: rgb(220, 220, 170);&quot;&gt;print&lt;/span&gt;(&lt;span style=&quot;color: rgb(156, 220, 254);&quot;&gt;celsius&lt;/span&gt;)&lt;/div&gt;&lt;div style=&quot;&quot;&gt;Print the converted value in Fahrenheit;&lt;/div&gt;&lt;div style=&quot;&quot;&gt;&lt;div style=&quot;line-height: 18px;&quot;&gt;&lt;div style=&quot;&quot;&gt;    &lt;span style=&quot;color: rgb(220, 220, 170);&quot;&gt;print&lt;/span&gt; (&lt;span style=&quot;color: rgb(220, 220, 170);&quot;&gt;format&lt;/span&gt; (&lt;span style=&quot;color: rgb(156, 220, 254);&quot;&gt;fahrenheit&lt;/span&gt;, &lt;span style=&quot;color: rgb(206, 145, 120);&quot;&gt;&quot;.2f&quot;&lt;/span&gt;))&lt;/div&gt;&lt;div style=&quot;&quot;&gt;&lt;/div&gt;&lt;/div&gt;&lt;/div&gt;&lt;div style=&quot;&quot;&gt;&lt;/div&gt;&lt;/div&gt;&lt;br&gt;&lt;div style=&quot;color: rgb(212, 212, 212); background-color: rgb(30, 30, 30); font-family: Menlo, Monaco, &amp;quot;Courier New&amp;quot;, monospace; line-height: 18px;&quot;&gt;&lt;div&gt;&lt;/div&gt;&lt;/div&gt;" style="rounded=0;whiteSpace=wrap;html=1;" parent="1" vertex="1">
                    <mxGeometry x="627.5" y="450" width="460" height="100" as="geometry"/>
                </mxCell>
                <mxCell id="5" value="" style="shape=singleArrow;direction=south;whiteSpace=wrap;html=1;labelBackgroundColor=none;fontFamily=Helvetica;" parent="1" vertex="1">
                    <mxGeometry x="837.5" y="220" width="40" height="70" as="geometry"/>
                </mxCell>
                <mxCell id="6" value="" style="shape=singleArrow;direction=south;whiteSpace=wrap;html=1;labelBackgroundColor=none;fontFamily=Helvetica;" parent="1" vertex="1">
                    <mxGeometry x="837.5" y="370" width="40" height="70" as="geometry"/>
                </mxCell>
                <mxCell id="7" value="&lt;font style=&quot;font-size: 22px;&quot;&gt;Start&lt;/font&gt;" style="ellipse;whiteSpace=wrap;html=1;labelBackgroundColor=none;fontFamily=Helvetica;" parent="1" vertex="1">
                    <mxGeometry x="797.5" width="120" height="80" as="geometry"/>
                </mxCell>
                <mxCell id="8" value="" style="shape=singleArrow;direction=south;whiteSpace=wrap;html=1;labelBackgroundColor=none;fontFamily=Helvetica;" parent="1" vertex="1">
                    <mxGeometry x="837.5" y="80" width="40" height="70" as="geometry"/>
                </mxCell>
                <mxCell id="9" value="End" style="ellipse;whiteSpace=wrap;html=1;labelBackgroundColor=none;fontFamily=Helvetica;fontSize=22;" parent="1" vertex="1">
                    <mxGeometry x="797.5" y="630" width="120" height="80" as="geometry"/>
                </mxCell>
                <mxCell id="10" value="" style="shape=singleArrow;direction=south;whiteSpace=wrap;html=1;labelBackgroundColor=none;fontFamily=Helvetica;" parent="1" vertex="1">
                    <mxGeometry x="837.5" y="560" width="40" height="70" as="geometry"/>
                </mxCell>
            </root>
        </mxGraphModel>
    </diagram>
</mxfile>